<?xml version="1.0" encoding="UTF-8"?>
<svg version="1.1" viewBox="0 0 1667 2048" width="1280" height="1280" xmlns="http://www.w3.org/2000/svg">
<path transform="translate(0)" d="m0 0h1667v2048h-1667z" fill-opacity="0.0"/>
<path transform="translate(1216,73)" d="m0 0h36l22 3 19 5 18 8 15 9 7 5v2l-46 12-40 12-29 10-28 11-33 15-28 15-17 11-16 11-14 11-11 10-8 7-7 7-9 11-6 7-11 16-8 13-9 19-8 22-6 24-3 18-2 22v40l3 34 6 38 7 34 9 36 15 52 16 51 32 97 17 52 18 58 15 52 13 49 12 51 1 7 23-11 27-14 22-12 1-5 5-10 4-6 3-6 1-4-10-9-11-9-10-9-10-8-4-3 1-3 10-7 9 1 53 15 8 2 5-1 15-13 11-9 30-26 14-12 8-7 14-12 9-8-2-4-13-14-7-8-9-10-17-9-91-42-20-9-1-3 11-7 6-5 8 1 44 10 16 4h8l12-9 6-1 6 5 1 5-3 6 9 3 36 8 14-10 5-1 5 3 3 4-1 6-2 3 9 3 43 10 5-2 16-13 12-9 14-11 18-14 13-8 13-4h20l14 4 5 4v20l-4 14-7 12-10 10-23 16-32 22-14 10-1 1-4 54h9l4 4 1 7-6 7-9 6-1 3-3 38-1 7 2-1h8l4 4v8l-9 8-6 4-5 58-1 14-1 4-17 12h-2l-5-37-12-94-2-9-8-15-15-25v-2l-12 6-24 15-26 16-24 15-22 14-9 6-2 36-1 32-2 7-7 6-5 1-5-10-18-43-5 2-13 10-34 24-22 15-15 10-11 7 3 21 7 46 6 50 2 25 2 49v48l-2 44-4 42-7 49-8 41-8 33-9 33-9 30-1 5v13l4 36 6 31 8 29 9 25 11 25 11 21 13 21 14 19 12 14 7 8 21 21 11 9 17 13 15 10 22 13 15 7v2l-22 4-17 2h-38l-26-4-18-5-19-8-11-6-13-9-10-9-12-12-10-14-9-16-8-18-7-22-2-10v-4h-2l-1 9-6 26-8 26-8 20-11 21-10 14-11 13-10 9-14 10-19 10-22 8-22 5-21 3-27 2h-68l-39-1-64-1-21-1 4-10 7-10 9-10 10-9 18-11 16-7 21-7 27-6 18-3h4l-4-16-8-24-9-21-8-15-9-14-11-14-5-5v-2h-2v-2l-4-2-11-9-14-8-18-6-13-2h-16l-18 3-24 8-9 4-18 3-10 4-9 8-7 11-6 14-6 19-12 45-9 26-10 21-9 14-7 9-9 10-10 9-18 12-19 9-18 6-21 5-21 3-12 1h-192l-1-3 5-19 9-17 9-12 9-10 13-13 11-9 18-13 21-13 23-12 16-8 25-11 37-14-2-4-8-7-11-10-7-8-10-11-11-14-10-13-12-17-13-21-11-19-13-24-12-25-14-33-3-8-5 5-15 20-18 27-12 20-14 27-11 25-11 33-6 27-3 20-1 11v34l3 24 5 23 6 19 8 20 9 17-1 3-35-35-9-11-13-17-10-15-11-19-8-16-9-21-8-24-5-21-4-27-1-13v-28l3-29 5-24 7-24 9-24 12-25 16-27 14-20 11-14 13-15 12-13 22-22 8-7 6-5-1-11-7-41-6-48-4-47-2-42v-89l2-46-16 6-16 9-11 9-11 10-6 5-12 17-10 19-8 20-6 18-6 25-5 29-3 28-5-1-14-9-12-11-7-8-9-14-7-15-6-19-4-21-1-10v-39l3-26 5-28 10-40 12-38 11-30 12-29 10-23 13-28 16-33 17-33 13-23 9-15 10-15 29-44 44-65 15-22 13-19 11-16 28-40 13-18 14-19 10-13 8-10 12-14 4-3-1 6-15 52-15 57-14 58-12 57-9 48-9 57-7 56-4 43-3 46-1 26v65l2 42 4 45 7 49 7 36 8 33 9 30 8 24 5 12v2l12-6 23-13 26-14 33-17 32-16 60-28 36-16 39-17h3l-6-43-4-40-2-33v-87l3-51 4-41 7-49 7-37 9-40 11-40 12-36 8-21 11-27 5-20 6-39 4-38 1-14v-59l-3-30-5-27-8-26-9-19-8-12-10-12-2-1v-2l-4-2-11-8-17-8-21-5-22-1-22 2-24 5-23 7-30 12-6 2 2-11 9-32 8-24 11-27 14-29 10-19 12-20 13-19 12-16 14-17 14-15 22-22 11-9 13-11 17-12 17-11 21-12 22-11 27-11 31-10 23-6h15l73 7 60 4 52 2h48l45-2 31-3 24-4 28-7z" fill="#5584C0"/>
<path transform="translate(1163,1069)" d="m0 0 2 3 8 50 7 54 3 35 2 49v48l-2 44-4 42-7 49-8 41-8 33-9 33-9 30-1 5v13l4 36 6 31 8 29 9 25 11 25 11 21 13 21 14 19 12 14 7 8 21 21 11 9 17 13 15 10 22 13 15 7v2l-22 4-17 2h-38l-26-4-18-5-19-8-11-6-13-9-10-9-12-12-10-14-9-16-8-18-7-22-2-10v-4h-2l-1 9-6 26-8 26-8 20-11 21-10 14-11 13-10 9-14 10-19 10-22 8-22 5-21 3-27 2h-68l-39-1-64-1-21-1 4-10 7-10 9-10 10-9 18-11 16-7 21-7 27-6 18-3h4l-4-16-8-24-9-21-8-15-9-14-11-14-5-5v-2h-2v-2l-4-2-11-9-14-8-18-6-13-2h-16l-18 3-24 8-9 4-18 3-10 4-9 8-7 11-6 14-6 19-12 45-9 26-10 21-9 14-7 9-9 10-10 9-18 12-19 9-18 6-21 5-21 3-12 1h-192l-1-3 5-19 9-17 9-12 9-10 13-13 11-9 18-13 21-13 23-12 16-8 25-11 37-14-2-4-8-7-11-10-7-8-10-11-11-14-10-13-12-17-13-21-11-19-13-24-12-25-14-33-4-10 9-11 9-10 9-11 7-7 7-8 31-31 8-7 10-9 11-9 10-9 7-5h2v-2l11-8 18-14 18-13 20-14 30-20 19-12 21-13 27-16 19-11 23-13 24-13 3 3 11 29 10 21 9 15 9 12 9 10 8 7 14 8 12 4 14 1 14-3 14-6 14-9 3-2v-7l-6-31-5-38-2-29v-52l4-4 45-23 21-11 36-18 19-10 29-15 20-11 12-6 10-3 23-12 14-8 10-6 25-14 17-10 29-17 26-16 24-15z" fill="#5584C0"/>
<path transform="translate(420,546)" d="m0 0 1 4-7 22-13 47-13 50-14 59-13 63-10 57-8 55-6 54-4 51-2 44v65l2 42 4 45 7 49 7 36 8 33 9 30 8 24 5 12v2l12-6 23-13 26-14 33-17 32-16 60-28 36-16 39-17 13-5 43-18 36-15 41-17 29-12 11-5 34-14 11-4 11-3 25-10 65-28 41-18 27-12 12-5 32-15 28-13 51-25 33-17 19-10 26-14 1-5 5-10 4-6 3-6 1-4-10-9-11-9-10-9-10-8-4-3 1-3 10-7 9 1 53 15 8 2 5-1 15-13 11-9 30-26 14-12 8-7 14-12 9-8-2-4-13-14-7-8-9-10-17-9-91-42-20-9-1-3 11-7 6-5 8 1 44 10 16 4h8l12-9 6-1 6 5 1 5-3 6 9 3 36 8 14-10 5-1 5 3 3 4-1 6-2 3 9 3 43 10 5-2 16-13 12-9 14-11 18-14 13-8 13-4h20l14 4 5 4v20l-4 14-7 12-10 10-23 16-32 22-14 10-1 1-4 54h9l4 4 1 7-6 7-9 6-1 3-3 38-1 7 2-1h8l4 4v8l-9 8-6 4-5 58-1 14-1 4-17 12h-2l-5-37-12-94-2-9-8-15-15-25v-2l-12 6-24 15-26 16-24 15-22 14-9 6-2 36-1 32-2 7-7 6-5 1-5-10-18-43-5 2-13 10-34 24-22 15-15 10-16 10-19 12-26 16-44 26-23 13-21 12-10 6-26 14-7 3-9 3-25 13-19 10-52 27-16 8-23 12-26 13-19 10-1 2v52l2 29 5 38 6 31v7l-13 9-16 8-10 3-14 1-14-3-16-8-10-8-9-9-11-15-10-17-9-19-12-31-16 8-22 12-53 31-24 15-19 12-39 26-16 12-14 10-26 20h-2v2l-6 4-14 12-11 9-15 14-8 7-30 30-7 8-9 10-7 8-12 15-8 11-12 16-18 27-12 20-14 27-11 25-11 33-6 27-3 20-1 11v34l3 24 5 23 6 19 8 20 9 17-1 3-35-35-9-11-13-17-10-15-11-19-8-16-9-21-8-24-5-21-4-27-1-13v-28l3-29 5-24 7-24 9-24 12-25 16-27 14-20 11-14 13-15 12-13 22-22 8-7 6-5-1-11-7-41-6-48-4-47-2-42v-89l2-46-16 6-16 9-11 9-11 10-6 5-12 17-10 19-8 20-6 18-6 25-5 29-3 28-5-1-14-9-12-11-7-8-9-14-7-15-6-19-4-21-1-10v-39l3-26 5-28 10-40 12-38 11-30 12-29 10-23 13-28 16-33 17-33 13-23 9-15 10-15 29-44 44-65 15-22 13-19 11-16 28-40 13-18 14-19 10-13 8-10 12-14z" fill="#3A3A3C"/>
<path transform="translate(1026,1151)" d="m0 0h3v11l-3 46-5 41-7 38-7 29-9 31-10 28-10 24-12 25-10 19-16 26-13 18-11 14-12 14-11 12-16 16-8 7-16 13-17 12-21 13-23 12-28 11-24 7-20 4-22 3-13 1h-21l-21-2-24-4-23-6-23-8-29-14-20-12-19-14-13-11-12-11-16-16-7-8-14-17-10-14 1-4 14-11 21-16 19-13 11-8 30-20 19-12 21-13 27-16 19-11 23-13 24-13 3 3 11 29 10 21 9 15 9 12 9 10 8 7 14 8 12 4 14 1 14-3 14-6 14-9 3-2v-7l-6-31-5-38-2-29v-52l4-4 45-23 21-11 36-18 19-10 29-15 20-11 12-6 10-3 23-12z" fill="#FDFDFD"/>
<path transform="translate(420,546)" d="m0 0 1 4-7 22-13 47-13 50-14 59-13 63-10 57-8 55-6 54-4 51-2 44v65l2 42 4 45 7 49 7 36 8 33 9 30 8 24 5 12v2l2 1-32 19-27 18-16 11-17 13-11 9-7 4-7-38-6-43-4-39-3-44-1-24v-89l2-46-16 6-16 9-11 9-11 10-6 5-12 17-10 19-8 20-6 18-6 25-5 29-3 28-5-1-14-9-12-11-7-8-9-14-7-15-6-19-4-21-1-10v-39l3-26 5-28 10-40 12-38 11-30 12-29 10-23 13-28 16-33 17-33 13-23 9-15 10-15 29-44 44-65 15-22 13-19 11-16 28-40 13-18 14-19 10-13 8-10 12-14z" fill="#5584C0"/>
<path transform="translate(997,901)" d="m0 0 3 1 10 47 7 39 6 42 4 40 1 14v19l-15 7-31 14-46 20-47 20-20 8-15 4-46 19-4 1 1-8 8-28 10-30 11-27 12-25 10-19 12-20 10-15 10-14 13-17 11-13 7-8 10-11 7-8 13-13 8-7 10-9 16-13z" fill="#FDFDFD"/>
<path transform="translate(792,1270)" d="m0 0h2v54l2 29 5 38 6 31v7l-13 9-16 8-10 3-14 1-14-3-16-8-10-8-9-9-11-15-10-17-9-19-12-31 1-3 28-15 34-18 39-20z" fill="#5584C0"/>
<path transform="translate(894,162)" d="m0 0 10 1 8 5 5 6 2 5v9l-5 10-8 6-10 2-9-3-8-7-3-7v-11l5-8 7-6z" fill="#FDFDFD"/>
<path transform="translate(156,1624)" d="m0 0 1 3-7 21-6 23-4 22-2 24v29l2 20 5 24 4 15 9 27 13 28 11 20 13 19 10 13 8 10 10 10 7 8 7 7 2 1-5-7-5-13v-3h3l9 21 7 13-1 3-35-35-9-11-13-17-10-15-11-19-8-16-9-21-8-24-5-21-4-27-1-13v-28l3-29 5-24 7-24 4-11z" fill="#252B36"/>
<path transform="translate(660,1337)" d="m0 0h3l-1 3-30 16-21 12-29 17-23 14-19 12-25 16-11 8-15 10-18 13-19 14-14 11-4 1 2-4 11-9 17-13 18-13 23-16 15-10 11-7 19-12 23-14 17-10 10-6 12-7 18-10 22-12z" fill="#252A35"/>
<path transform="translate(974,1174)" d="m0 0m-3 1h3l-1 3-42 22-52 27-16 8-23 12-26 13-19 10-4-1 9-6 26-13 19-10 15-8 16-8 27-14 24-12 19-10 14-8z" fill="#252B37"/>
<path transform="translate(1419,897)" d="m0 0 3 1-3 1v2l-17 10-21 13-24 15-21 13-22 14-6 4-4-1 9-7 38-24 26-16 20-12 18-11z" fill="#262B37"/>
<path transform="translate(1423,900)" d="m0 0 5 5 8 14 6 9 7 14 4 24 4 31 2 20 1 4v12l-2 4-11-86-2-9-8-15-9-15-5-8z" fill="#2A3342"/>
<path transform="translate(156,1624)" d="m0 0 1 3-7 21-6 23-4 22-2 24-1 29-3-3v-28l3-29 5-24 7-24 4-11z" fill="#283140"/>
<path transform="translate(1246,764)" d="m0 0 5 1 25 11 28 13 24 11 16 8 8 5-4 1-38-18-33-15-30-14z" fill="#242934"/>
<path transform="translate(1583,778)" d="m0 0 1 3-4 6-9 9-23 16-45 31h-3l2-4 32-22 19-13 20-14 7-9h2z" fill="#242833"/>
<path transform="translate(1542,735)" d="m0 0h5v2l-12 6-16 12-14 11-18 14-14 11-7 5-2-1 5-6 26-20 14-11 18-14 13-8z" fill="#252A36"/>
<path transform="translate(617,1274)" d="m0 0 3 1-3 3-25 11-29 13-28 13-11 5-2-1v-2l34-16 36-16z" fill="#272C38"/>
<path transform="translate(660,1337)" d="m0 0h3l-1 3-30 16-21 12-17 10h-2l2-4 8-5 10-6 18-10 22-12z" fill="#272E3B"/>
<path transform="translate(304,1612)" d="m0 0h2l-1 4-12 16-18 27-11 18-2-4 11-18 7-11 12-17 9-12z" fill="#262C39"/>
<path transform="translate(1300,1012)" d="m0 0h1v34l-8 7-5 1-5-10-10-24v-5l3 3 4 10 4 9 3 7 3 5 4-1 3-2 1-23z" fill="#2B3443"/>
<path transform="translate(1553,732)" d="m0 0h20l14 4 5 4v20l-2 8h-2v-25l-3-3-9-4-19-1-9 1 1-2z" fill="#252931"/>
<path transform="translate(1227,929)" d="m0 0 10 1 35 10 8 2v2l3 1h-9l-24-7-23-7z" fill="#252B36"/>
<path transform="translate(1220,1028)" d="m0 0 1 3-15 11-30 20-8 5-3-1 13-10 16-10 10-7 15-10z" fill="#262D3A"/>
<path transform="translate(857,1174)" d="m0 0h7l-2 2-28 11-21 9-5 1 2-4 39-16z" fill="#282F3D"/>
<path transform="translate(1206,1016)" d="m0 0 2 1-4 4-23 12-17 9-6 1v-2l23-12z" fill="#252A35"/>
<path transform="translate(1207,926)" d="m0 0h3v2l-5 4h-2l5 5 11 9 6 5v2l4 2 8 7 4 5-4-1-10-9-11-9-14-12-3-2 1-3z" fill="#272E3B"/>
<path transform="translate(1356,817)" d="m0 0 4 2 11 11 4 6 15 16v3l-3 3h-2l-1 3-8 7h-3l7-7 6-7-2-4-13-14-7-8-8-9z" fill="#242934"/>
<path transform="translate(1022,1150)" d="m0 0h4v2l-24 13-15 8h-5l4-4 27-14z" fill="#262C38"/>
<path transform="translate(1423,900)" d="m0 0 5 5 8 14 6 9 7 14 1 12-2-4-7-16-13-22-5-8z" fill="#282F3C"/>
<path transform="translate(974,1174)" d="m0 0m-3 1h3l-1 3-23 12-15 8h-2l2-4 24-13z" fill="#262C38"/>
<path transform="translate(481,1337)" d="m0 0 3 1-2 3-21 10-19 10-2-1 4-4 29-15z" fill="#242832"/>
<path transform="translate(1013,1109)" d="m0 0h4v2l-17 8-25 11-3-1 3-3z" fill="#262C38"/>
<path transform="translate(156,1624)" d="m0 0 1 3-7 21-5 18-3 1 1-9 8-26 3-6z" fill="#252A34"/>
<path transform="translate(1419,897)" d="m0 0 3 1-3 1v2l-17 10-19 12h-2l2-4 9-6 23-14z" fill="#282F3C"/>
<path transform="translate(1421,785)" d="m0 0h7l34 8 1 3h-7l-25-6-10-3z" fill="#252B36"/>
<path transform="translate(1280,752)" d="m0 0 10 1 21 5h8l4-1-4 5h-8l-22-5-9-3z" fill="#262B37"/>
<path transform="translate(1583,778)" d="m0 0 1 3-4 6-9 9-20 14h-2l2-4 10-8 11-7 6-7 2-3h2z" fill="#272F3C"/>
<path transform="translate(626,1355)" d="m0 0m-1 1m-2 1h2l-1 4-20 11-10 6h-2l2-4 8-5 10-6z" fill="#262C38"/>
<path transform="translate(1347,768)" d="m0 0h8l31 7 4-1v2h-2l-1 3-6-1-9-2-12-3-13-4z" fill="#232832"/>
<path transform="translate(917,1151)" d="m0 0h4v2l-20 9-15 6-3-1 3-3z" fill="#262B37"/>
<path transform="translate(1370,868)" d="m0 0 2 1-11 12-14 12-9 8-2-1 7-7 6-7 11-9z" fill="#252A36"/>
<path transform="translate(218,1886)" d="m0 0h3l6 24 3 9v3l-3-1-5-15-4-15z" fill="#293240"/>
<path transform="translate(280,1646)" d="m0 0 1 4-11 17-6 10-2-4 11-18z" fill="#29303D"/>
<path transform="translate(1300,1012)" d="m0 0h1v34l-4 4-3-1 3-3 1-23z" fill="#1C1C20"/>
<path transform="translate(171,1588)" d="m0 0h2l-2 6-9 20-3 7-3 1 1-5 8-18z" fill="#2C3646"/>
<path transform="translate(1312,918)" d="m0 0 2 1-9 10-10 8h-2v2l-4 3-2-1 7-8 11-9z" fill="#252A34"/>
<path transform="translate(1500,899)" d="m0 0h6l4 4 1 7-6 7-5 3-3-1 7-6h2v-8l-1-3-5-1z" fill="#293242"/>
<path transform="translate(219,1785)" d="m0 0h1v11l-3 19-2 4v-16l1-3 1-11z" fill="#282F3D"/>
<path transform="translate(1494,971)" d="m0 0h8l3 3v8l-9 8-5 1 4-5 5-3 1-4-1-7h-6z" fill="#242830"/>
<path transform="translate(1542,735)" d="m0 0h5v2l-12 6-12 9-2-1 6-7 13-8z" fill="#242934"/>
<path transform="translate(229,1925)" d="m0 0h3l9 21 2 6-3-1-3-6-4-7-4-10z" fill="#2B3240"/>
<path transform="translate(507,1324)" d="m0 0 3 1-3 3-20 10-2-1 4-4z" fill="#272D39"/>
<path transform="translate(214,1824)" d="m0 0h1v29l-2-2-1-7v-13z" fill="#19171A"/>
<path transform="translate(1234,750)" d="m0 0 3 1-5 7 4 1 8 4-4 1-14-7v-2z" fill="#29313F"/>
<path transform="translate(481,1337)" d="m0 0 3 1-2 3-17 8-2-1v-2z" fill="#272E3A"/>
<path transform="translate(453,1466)" d="m0 0m-1 1m-1 1m-1 1m-1 1m-2 1h2l-1 4-11 9h-3l2-4z" fill="#242934"/>
<path transform="translate(135,1745)" d="m0 0 3 1 1 9v11l-3-2-1-8z" fill="#272C38"/>
<path transform="translate(1356,817)" d="m0 0 4 2 11 11 1 6-12-12-4-5z" fill="#262B35"/>
<path transform="translate(640,1264)" d="m0 0h4v2l-18 8-2-1 4-4z" fill="#252A35"/>
<path transform="translate(1550,806)" d="m0 0m-1 1m-2 1h2l-1 4-13 9h-2l2-4 9-7z" fill="#252A35"/>
<path transform="translate(1347,768)" d="m0 0h8l17 4-3 2-9-1-13-4z" fill="#282F3C"/>
<path transform="translate(917,1151)" d="m0 0h4v2l-15 7-3-1v-2z" fill="#262C39"/>
<path transform="translate(945,1139)" d="m0 0 3 1-3 3-14 6-2-1 2-3z" fill="#252B36"/>
<path transform="translate(1284,1041)" d="m0 0 4 5 2 3 6 1-5 4-4-1-3-7z" fill="#272D3A"/>
<path transform="translate(989,1120)" d="m0 0 2 1-2 3-14 6-3-1 3-3z" fill="#282F3B"/>
<path transform="translate(1583,778)" d="m0 0 1 3-4 6-9 9h-2l2-4 7-8 2-3h2z" fill="#262B36"/>
<path transform="translate(218,1886)" d="m0 0h3l3 13v4l-3-1-3-11z" fill="#2A313F"/>
<path transform="translate(156,1624)" d="m0 0 1 3-5 14-4 2 3-11 3-6z" fill="#272E3B"/>
<path transform="translate(1481,1056)" d="m0 0h2v14l-5 3h-2v-2l2-1z" fill="#1E1E23"/>
<path transform="translate(141,1666)" d="m0 0h3l-1 10-1 4-2 1-1 5h-1l1-11z" fill="#2C3544"/>
<path transform="translate(1333,900)" d="m0 0 2 1-10 11-7 6-2-1 12-13z" fill="#242832"/>
<path transform="translate(394,1383)" d="m0 0 3 1-4 4-12 6v-3z" fill="#252933"/>
<path transform="translate(1419,897)" d="m0 0 3 1-3 1v2l-12 7h-2l2-4 8-5z" fill="#262B36"/>
<path transform="translate(412,1373)" d="m0 0 3 1-3 3-12 7-2-1 5-5z" fill="#252A36"/>
<path transform="translate(1460,1045)" d="m0 0 1 3h2l1 14-1 7h-1l-2-16z" fill="#323E52"/>
<path transform="translate(1220,1028)" d="m0 0 1 3-15 11h-2l2-4z" fill="#282E3B"/>
<path transform="translate(617,1274)" d="m0 0 3 1-3 3-12 5-2-1 5-4z" fill="#252934"/>
<path transform="translate(1457,1017)" d="m0 0h2l1 4v12l-2 4-1-8z" fill="#29303D"/>
<path transform="translate(267,1470)" d="m0 0 2 1-13 13-5 4-2-1 9-9 8-7z" fill="#34455D"/>
<path transform="translate(605,1367)" d="m0 0m-1 1m-2 1h2l-1 4-9 5h-2l2-4z" fill="#272E3C"/>
<path transform="translate(217,1866)" d="m0 0h1l2 14v6l-3-1-1-10z" fill="#313D50"/>
<path transform="translate(961,1132)" d="m0 0 3 1-3 3-9 4-3-1 3-3z" fill="#262C37"/>
<path transform="translate(1204,1039)" d="m0 0m-2 1h2l-1 4-11 7v-3l7-6z" fill="#23262F"/>
<path transform="translate(140,1680)" d="m0 0h1l-1 13-4 5 1-12h2v-5z" fill="#28303E"/>
<path transform="translate(163,1607)" d="m0 0 1 3-5 11-3 1 1-5 4-8z" fill="#242933"/>
<path transform="translate(1022,1150)" d="m0 0h4v2l-11 6h-2l2-4z" fill="#272E3B"/>
<path transform="translate(1403,764)" d="m0 0 6 2 3 3v3l-3-1v-2l-9-1v-3z" fill="#272C38"/>
<path transform="translate(236,1500)" d="m0 0 2 1-6 6-1 3-8 7-3 2 2-4z" fill="#34445B"/>
<path transform="translate(229,1510)" d="m0 0v3l-4 5h-2l-1 3-7 5 1-4z" fill="#1F2128"/>
<path transform="translate(272,1466)" d="m0 0h2l-2 4-12 12-2-1 10-10z" fill="#1C1A1D"/>
<path transform="translate(1013,1109)" d="m0 0h4v2l-10 5-3-1v-2z" fill="#262B35"/>
<path transform="translate(1392,913)" d="m0 0m-2 1h2l-1 4-8 5h-2l2-4z" fill="#28303E"/>
<path transform="translate(818,1190)" d="m0 0 3 1-3 3-10 3 2-4z" fill="#232730"/>
<path transform="translate(1444,937)" d="m0 0 3 1 2 4 1 12-2-4-4-10z" fill="#242831"/>
<path transform="translate(1523,747)" d="m0 0 2 1-8 9-5 2 2-5z" fill="#272D3A"/>
<path transform="translate(219,1785)" d="m0 0h1v11l-1 3h-2v-10z" fill="#23252D"/>
<path transform="translate(857,1174)" d="m0 0h7l-2 2-11 4-2-1 5-4z" fill="#21232B"/>
<path transform="translate(585,1288)" d="m0 0 3 1-3 3-6 3-3-1v-2z" fill="#282F3C"/>
<path transform="translate(1334,748)" d="m0 0 5 1 3 3-1 3-2-2-8-1z" fill="#242832"/>
<path transform="translate(242,1715)" d="m0 0 1 4-4 8h-2l1-5 2-5h2z" fill="#2B313D"/>
<path transform="translate(436,1360)" d="m0 0 3 1-3 3-7 4-2-1 5-5z" fill="#252933"/>
<path transform="translate(660,1337)" d="m0 0h3l-1 3-8 4h-2l2-4z" fill="#292F3B"/>
<path transform="translate(248,1488)" d="m0 0h2l-1 3h-2v2l-5 4-3 3-2-1z" fill="#272528"/>
<path transform="translate(1423,900)" d="m0 0 5 5 2 6-2 1-5-8z" fill="#2A3241"/>
<path transform="translate(1217,1010)" d="m0 0 4 1-10 6-2-1 4-4z" fill="#262B36"/>
<path transform="translate(1273,1015)" d="m0 0 3 3 2 5-1 4-3-4z" fill="#29303D"/>
<path transform="translate(1206,1016)" d="m0 0 2 1-4 4-6 2v-3z" fill="#272F3C"/>
<path transform="translate(1342,892)" d="m0 0 2 1-7 7-4 5-2-1 3-4 5-5z" fill="#2D384A"/>
<path transform="translate(1497,852)" d="m0 0 2 3v10h-2l-1-7z" fill="#1F1D20"/>
<path transform="translate(221,1776)" d="m0 0 2 2-2 13h-1v-14z" fill="#323F53"/>
</svg>
