<svg xmlns="http://www.w3.org/2000/svg" viewBox="0 0 384 384"><g fill="#0088cc"><path d="m368 176a16 16 0 0 0 -16 16 159.24 159.24 0 0 1 -36.18 101.19l-32.5-32.5a16 16 0 0 0 -22.62 22.62l32.5 32.5a159.26 159.26 0 0 1 -101.2 36.19c-88.22 0-160-71.78-160-160a159.24 159.24 0 0 1 36.18-101.19l32.5 32.5a16 16 0 0 0 22.63-22.62l-32.5-32.5a159.22 159.22 0 0 1 101.19-36.19 16 16 0 0 0 0-32 191.33 191.33 0 0 0 -134.5 55.15 16.12 16.12 0 0 0 -1.29 1.06 16.12 16.12 0 0 0 -1.06 1.29 191.32 191.32 0 0 0 -55.15 134.5c0 105.87 86.14 192 192 192a191.33 191.33 0 0 0 134.5-55.15 8.46 8.46 0 0 0 2.34-2.34 191.32 191.32 0 0 0 55.16-134.51 16 16 0 0 0 -16-16z"/><path d="m291.31 92.69a16 16 0 0 0 -16.93-3.69l-128 48-.16.07a15.76 15.76 0 0 0 -5.54 3.59l-.1.12c-.26.26-.46.58-.7.86a16.16 16.16 0 0 0 -1.41 1.83c-.2.31-.34.66-.52 1a15.51 15.51 0 0 0 -1 2.06c0 .14-.14.26-.18.4l-40 120a16 16 0 0 0 20.24 20.22l120-40a16 16 0 0 0 9.92-9.56l48-128a16 16 0 0 0 -3.62-16.9zm-71.61 126.54-82.4 27.47 21.7-65.08 21.7 21.7a16 16 0 0 0 22.62-22.62l-22.43-22.43 71.78-26.92z"/><path d="m352 8a24 24 0 1 0 24 24 24 24 0 0 0 -24-24z"/></g></svg>