<svg xmlns="http://www.w3.org/2000/svg" viewBox="0 0 384 384"><path d="m377.71 4.29a16 16 0 0 0 -13.92-2.72l-171.79 46.85-171.79-46.86a16 16 0 0 0 -20.21 15.44v256a16 16 0 0 0 11.79 15.44l176 48c.13 0 .26 0 .39.06a16.14 16.14 0 0 0 3.82.5 15.91 15.91 0 0 0 4.6-.75l.83-.26a15.9 15.9 0 0 0 4-2.13c.08-.06.18-.08.27-.14s.36-.38.57-.54a15.19 15.19 0 0 0 1.63-1.58c.28-.31.54-.63.79-1a16.41 16.41 0 0 0 1.22-1.88c.19-.34.39-.67.56-1a16.34 16.34 0 0 0 .84-2.32c.09-.31.22-.6.29-.92a16.63 16.63 0 0 0 .4-3.48v-243.77l32-8.73v300.5a16 16 0 0 0 32 0v-304a15.88 15.88 0 0 0 -.87-5l80.87-22v222.79l-35.71 9.74a16 16 0 0 0 8.42 30.87l47.5-13a16 16 0 0 0 11.79-15.4v-256a16 16 0 0 0 -6.29-12.71zm-201.71 295.77-144-39.27v-222.79l144 39.23z" fill="#0088cc"/></svg>